<svg xmlns="http://www.w3.org/2000/svg" xml:space="preserve" id="레이어_1" width="360.69873" height="458.76974" x="0px" y="0px" version="1.1" viewBox="0 0 360.69873 458.76974"><style>.st0{fill:#4388c9}</style><g id="g34" style="stroke-width:4.46411" transform="matrix(.224 0 0 .224 -49.035 0)"><g id="XMLID_1_" style="stroke-width:4.46411"><g id="g6" style="stroke-width:4.46411"><path id="path4" d="M1829.1 13v1248.8c0 162.1-63.4 309.9-188.4 439.2-94.6 97.8-224.8 184.8-387 258.5-79 35.9-157.7 65.1-229.7 88.5-72-23.4-150.7-52.6-229.7-88.5-162.2-73.7-292.4-160.7-387-258.5-125-129.3-188.4-277.1-188.4-439.2V13c21.2 12.7 44.6 25.7 69.7 38.4 106.9 54.3 268.9 114.7 434.1 94.2C833.2 131.9 934.1 83 1024 0c89.9 83 190.8 131.9 301.4 145.6 165.1 20.5 327.2-39.9 434.1-94.2 25.1-12.7 48.4-25.7 69.6-38.4" class="st0" style="stroke-width:4.46411"/></g></g><g id="g16" style="stroke-width:4.46411"><g id="XMLID_2_" style="stroke-width:4.46411"><g id="g11" style="stroke-width:4.46411"><path id="path9" d="M1024 1955.3c-307-103.8-717.1-313.6-717.1-693.5V157.5c197.3 87.1 470.3 141 717.1-42.9 246.8 183.9 519.8 130.1 717.1 42.9v1104.3c0 379.9-410.1 589.7-717.1 693.5" style="fill:#fff;stroke-width:4.46411"/></g></g></g><g id="g32" style="stroke-width:4.46411"><path id="polygon18" d="m1534.6 733.8-152.9 265-155.7-89.9V729.3h311.3z" class="st0" style="stroke-width:4.46411"/><path id="polygon20" d="M1537.3 1322H1226v-179.7l155.6-89.8 2 3.4z" class="st0" style="stroke-width:4.46411"/><path id="polygon22" d="m681.8 1025.7 171.1-98.9V729.3L1024 828l171.1-98.7v197.5l171.1 98.9-171.1 98.8V1322l-171.1-98.8-171.1 98.8v-197.5z" style="fill:#ec2329;stroke-width:4.46411"/><path id="polygon24" d="m1024 792.3-155.6-89.8L1024 432.9l155.6 269.6z" class="st0" style="stroke-width:4.46411"/><path id="polygon26" d="M868.4 1348.8 1024 1259l155.6 89.8-155.6 269.6z" class="st0" style="stroke-width:4.46411"/><path id="polygon28" d="m510.7 1322 155.7-269.5 155.6 89.8V1322z" class="st0" style="stroke-width:4.46411"/><path id="polygon30" d="m822 908.9-155.7 89.9-152.9-265-2.7-4.5H822z" class="st0" style="stroke-width:4.46411"/></g></g></svg>